<svg width="32" height="32" viewBox="0 0 32 32" fill="none" xmlns="http://www.w3.org/2000/svg">
<path opacity="0.1" fill-rule="evenodd" clip-rule="evenodd" d="M0 16C0 7.16344 7.16344 0 16 0C24.8366 0 32 7.16344 32 16C32 24.8366 24.8366 32 16 32C7.16344 32 0 24.8366 0 16Z" fill="white"/>
<path d="M21.44 9.82C20.7566 9.03953 20.3799 8.0374 20.38 7H17.29V19.4C17.2667 20.0712 16.9835 20.7071 16.5003 21.1735C16.0171 21.6399 15.3716 21.9004 14.7 21.9C13.28 21.9 12.1 20.74 12.1 19.3C12.1 17.58 13.76 16.29 15.47 16.82V13.66C12.02 13.2 9 15.88 9 19.3C9 22.63 11.76 25 14.69 25C17.83 25 20.38 22.45 20.38 19.3V13.01C21.633 13.9099 23.1374 14.3926 24.68 14.39V11.3C24.68 11.3 22.8 11.39 21.44 9.82Z" fill="#E9E7E5"/>
</svg>
